<svg width="32" height="34" fill="none" xmlns="http://www.w3.org/2000/svg"><path fill-rule="evenodd" clip-rule="evenodd" d="M18.83 1.94c-1.86 1.058-3.354 2.008-3.321 2.111.033.104 1.662 1.063 3.62 2.132l3.56 1.944.06 12.85c.035 7.067.142 12.927.239 13.022.096.096 1.726-.699 3.62-1.765l3.445-1.94.06-13.007.062-13.008-3.802-2.156c-2.09-1.185-3.882-2.144-3.98-2.13-.1.013-1.702.89-3.562 1.947ZM5.229 10.194c-1.894 1.07-3.426 2.038-3.404 2.15.023.111 2 1.287 4.395 2.612l4.354 2.41.064 5.23c.048 3.95.136 5.23.356 5.228.161 0 1.843-.88 3.737-1.955l3.445-1.954.064-5.212.064-5.213-4.636-2.63c-2.55-1.446-4.717-2.625-4.815-2.62-.099.004-1.73.884-3.624 1.954Z" fill="#fff"/></svg>