<svg width="32" height="34" fill="none" xmlns="http://www.w3.org/2000/svg"><path fill-rule="evenodd" clip-rule="evenodd" d="M18.831 1.94c-1.86 1.058-3.355 2.008-3.322 2.112.033.103 1.662 1.062 3.62 2.132l3.56 1.943.061 12.85c.034 7.067.14 12.927.238 13.023.096.095 1.726-.7 3.62-1.766l3.445-1.939.061-13.008.062-13.008-3.802-2.155C24.282.938 22.49-.021 22.392-.007c-.099.013-1.701.89-3.562 1.947ZM5.228 10.195c-1.894 1.07-3.426 2.038-3.403 2.149.022.112 2 1.287 4.394 2.612l4.354 2.41.064 5.23c.048 3.95.136 5.23.357 5.228.16 0 1.842-.88 3.736-1.955l3.445-1.954.064-5.212.064-5.213-4.636-2.63c-2.55-1.446-4.717-2.625-4.815-2.62-.099.004-1.73.884-3.624 1.954Z" fill="#527DEB"/></svg>