<svg width="32" height="34" viewBox="0 0 32 34" fill="none" xmlns="http://www.w3.org/2000/svg">
<path fill-rule="evenodd" clip-rule="evenodd" d="M18.831 1.94022C16.9707 2.99809 15.4757 3.94807 15.509 4.05171C15.5422 4.15512 17.1712 5.1143 19.1291 6.18351L22.6886 8.12738L22.7501 20.9767C22.7839 28.0439 22.8908 33.9041 22.9877 33.9997C23.0844 34.0951 24.7137 33.3007 26.6082 32.2341L30.0528 30.295L30.1141 17.287L30.1756 4.27906L26.3735 2.12366C24.2826 0.938304 22.491 -0.020885 22.3926 -0.00742848C22.294 0.00602802 20.6915 0.882353 18.831 1.94022ZM5.22835 10.1945C3.33385 11.2651 1.8021 12.2326 1.82467 12.344C1.847 12.4557 3.82464 13.6311 6.21943 14.9562L10.5733 17.3656L10.6372 22.5957C10.6854 26.5453 10.7729 27.8253 10.9936 27.8242C11.1544 27.8234 12.836 26.9438 14.7305 25.8692L18.1751 23.9154L18.239 18.7028L18.3029 13.4904L13.6668 10.8607C11.1168 9.41448 8.95011 8.2348 8.85177 8.23952C8.75342 8.244 7.12285 9.12387 5.22835 10.1945Z" fill="#527DEB"/>
</svg>
