<svg width="32" height="34" viewBox="0 0 32 34" fill="none" xmlns="http://www.w3.org/2000/svg">
<path fill-rule="evenodd" clip-rule="evenodd" d="M18.8307 1.93998C16.9705 2.99785 15.4755 3.94783 15.5088 4.05147C15.542 4.15487 17.171 5.11406 19.1289 6.18326L22.6884 8.12714L22.7499 20.9764C22.7837 28.0437 22.8906 33.9039 22.9875 33.9995C23.0842 34.0949 24.7135 33.3005 26.608 32.2339L30.0526 30.2947L30.1139 17.2868L30.1754 4.27881L26.3733 2.12341C24.2824 0.93806 22.4907 -0.0211291 22.3924 -0.00767262C22.2938 0.00578388 20.6913 0.882109 18.8307 1.93998ZM5.22815 10.1942C3.33365 11.2649 1.8019 12.2323 1.82446 12.3437C1.8468 12.4554 3.82444 13.6308 6.21922 14.956L10.5731 17.3654L10.637 22.5955C10.6852 26.5451 10.7727 27.8251 10.9934 27.8239C11.1542 27.8232 12.8358 26.9436 14.7303 25.8689L18.1749 23.9152L18.2388 18.7025L18.3027 13.4901L13.6666 10.8605C11.1166 9.41424 8.94991 8.23455 8.85156 8.23927C8.75322 8.24376 7.12264 9.12363 5.22815 10.1942Z" fill="white"/>
</svg>
